<svg width="196" height="148" viewBox="0 0 196 148" fill="none" xmlns="http://www.w3.org/2000/svg">
<g clip-path="url(#clip0_102_28)">
<path d="M55.8845 5.21467C57.048 3.86111 58.7382 3.08331 60.5159 3.08331H135.484C137.262 3.08331 138.952 3.86111 140.116 5.21467L171.919 42.2145C175.352 46.209 172.534 52.4166 167.287 52.4166H28.713C23.4665 52.4166 20.6483 46.209 24.0815 42.2145L55.8845 5.21467Z" stroke="#4BC188"/>
<path d="M110.25 0H85.75C84.0586 0 82.6875 1.38046 82.6875 3.08333C82.6875 4.78621 84.0586 6.16667 85.75 6.16667H110.25C111.941 6.16667 113.312 4.78621 113.312 3.08333C113.312 1.38046 111.941 0 110.25 0Z" fill="#4BC188"/>
<path fill-rule="evenodd" clip-rule="evenodd" d="M40.0168 49.3333H10.8889C4.86598 49.3333 0 53.7425 0 59.2C0 64.6575 4.86598 69.0666 10.8889 69.0666L19.7191 101.056L28.5493 133.046C30.9652 141.833 39.6765 148 49.6805 148H98H146.32C156.323 148 165.035 141.833 167.451 133.046L176.281 101.056L185.111 69.0666C191.134 69.0666 196 64.6575 196 59.2C196 53.7425 191.134 49.3333 185.111 49.3333H155.983H137.574H98H58.4258H40.0168ZM122.5 80.1666C120.809 80.1666 119.438 81.5471 119.438 83.25V111C119.438 112.703 120.809 114.083 122.5 114.083C124.191 114.083 125.562 112.703 125.562 111V83.25C125.562 81.5471 124.191 80.1666 122.5 80.1666ZM94.9375 83.25C94.9375 81.5471 96.3086 80.1666 98 80.1666C99.6914 80.1666 101.062 81.5471 101.062 83.25V111C101.062 112.703 99.6914 114.083 98 114.083C96.3086 114.083 94.9375 112.703 94.9375 111V83.25ZM73.5 80.1666C71.8086 80.1666 70.4375 81.5471 70.4375 83.25V111C70.4375 112.703 71.8086 114.083 73.5 114.083C75.1914 114.083 76.5625 112.703 76.5625 111V83.25C76.5625 81.5471 75.1914 80.1666 73.5 80.1666Z" fill="#4BC188"/>
</g>
<defs>
<clipPath id="clip0_102_28">
<rect width="196" height="148" fill="white"/>
</clipPath>
</defs>
</svg>
